<svg xmlns="http://www.w3.org/2000/svg" width="128" height="128" viewBox="0 0 128 128" fill="none">
  <!-- Filark -->
  <path d="M28 16C21.372 16 16 21.372 16 28V100C16 106.628 21.372 112 28 112H100C106.628 112 112 106.628 112 100V44L84 16H28Z" fill="#5F7FD1"></path>

  <!-- Brettet hjørne -->
  <path d="M84 16V36C84 40.418 87.582 44 92 44H112L84 16Z" fill="#8FA6E8"></path>

  <!-- Bookmark-symbol -->
  <path d="M52 58c0-2.2 1.8-4 4-4h16c2.2 0 4 1.8 4 4v44l-12-8-12 8V58Z" fill="rgba(255,255,255,0.85)"></path>
</svg>
