<svg xmlns="http://www.w3.org/2000/svg" width="128" height="128" viewBox="0 0 128 128" fill="none">
  <!-- Hovedark -->
  <path d="M28 16C21.372 16 16 21.372 16 28V100C16 106.628 21.372 112 28 112H100C106.628 112 112 106.628 112 100V44L84 16H28Z" fill="#5F7FD1"></path>

  <!-- Brettet hjørne -->
  <path d="M84 16V36C84 40.418 87.582 44 92 44H112L84 16Z" fill="#8FA6E8"></path>

  <!-- Glidelås: bakstripe -->
  <rect x="60" y="52" width="8" height="52" rx="4" fill="rgba(255,255,255,0.25)"></rect>

  <!-- Glidelås-tenner -->
  <rect x="58" y="58" width="12" height="4" rx="2" fill="rgba(255,255,255,0.7)"></rect>
  <rect x="58" y="66" width="12" height="4" rx="2" fill="rgba(255,255,255,0.6)"></rect>
  <rect x="58" y="74" width="12" height="4" rx="2" fill="rgba(255,255,255,0.5)"></rect>
  <rect x="58" y="82" width="12" height="4" rx="2" fill="rgba(255,255,255,0.45)"></rect>
  <rect x="58" y="90" width="12" height="4" rx="2" fill="rgba(255,255,255,0.4)"></rect>

  <!-- Glidelås-lås -->
  <rect x="56" y="46" width="16" height="10" rx="3" fill="rgba(255,255,255,0.8)"></rect>
</svg>
