<svg xmlns="http://www.w3.org/2000/svg" width="128" height="128" viewBox="0 0 128 128" fill="none">
  <path d="M12 36C12 29.372 17.372 24 24 24H52L64 36H104C110.628 36 116 41.372 116 48V52H12V36Z" fill="#6B8FD6"></path>
  <path d="M12 52H116V96C116 102.628 110.628 108 104 108H24C17.372 108 12 102.628 12 96V52Z" fill="#4F6FBF"></path>

  <circle cx="48" cy="78" r="7" fill="rgba(255,255,255,0.85)"></circle>
  <circle cx="82" cy="74" r="7" fill="rgba(255,255,255,0.70)"></circle>
  <circle cx="74" cy="96" r="7" fill="rgba(255,255,255,0.70)"></circle>

  <path d="M54 78h22" stroke="rgba(255,255,255,0.55)" stroke-width="4" stroke-linecap="round"></path>
  <path d="M78 79l-6 14" stroke="rgba(255,255,255,0.45)" stroke-width="4" stroke-linecap="round"></path>
  <path d="M54 82l16 11" stroke="rgba(255,255,255,0.45)" stroke-width="4" stroke-linecap="round"></path>

  <path d="M12 52H116" stroke="rgba(255,255,255,0.25)" stroke-width="2"></path>
</svg>
