<svg xmlns="http://www.w3.org/2000/svg" width="128" height="128" viewBox="0 0 128 128" fill="none">
  <!-- Filark -->
  <path d="M28 16C21.372 16 16 21.372 16 28V100C16 106.628 21.372 112 28 112H100C106.628 112 112 106.628 112 100V44L84 16H28Z" fill="#5F7FD1"></path>
  <!-- Brettet hjørne -->
  <path d="M84 16V36C84 40.418 87.582 44 92 44H112L84 16Z" fill="#8FA6E8"></path>

  <!-- PDF-badge -->
  <rect x="30" y="74" width="68" height="28" rx="10" fill="rgba(255,255,255,0.22)"></rect>
  <path d="M44 96V80h7.2c4.6 0 7.2 2.4 7.2 6.2 0 3.8-2.6 6.2-7.2 6.2H49v3.4h-5Zm5-7.6h2c1.8 0 2.8-.8 2.8-2.2s-1-2.2-2.8-2.2h-2v4.4Z" fill="rgba(255,255,255,0.85)"></path>
  <path d="M62 96V80h6.6c6.2 0 10 3.1 10 8s-3.8 8-10 8H62Zm5-4.2h1.6c3.2 0 4.8-1.4 4.8-3.8s-1.6-3.8-4.8-3.8H67v7.6Z" fill="rgba(255,255,255,0.85)"></path>
  <path d="M82 96V80h12v4h-7v2h6.4v3.8H87V96h-5Z" fill="rgba(255,255,255,0.85)"></path>
</svg>
