<svg xmlns="http://www.w3.org/2000/svg" width="128" height="128" viewBox="0 0 128 128" fill="none">
  <!-- Filark -->
  <path d="M28 16C21.372 16 16 21.372 16 28V100C16 106.628 21.372 112 28 112H100C106.628 112 112 106.628 112 100V44L84 16H28Z" fill="#5F7FD1"></path>
  <!-- Brettet hjørne -->
  <path d="M84 16V36C84 40.418 87.582 44 92 44H112L84 16Z" fill="#8FA6E8"></path>

  <!-- Presentasjon-badge: lerret -->
  <rect x="32" y="60" width="64" height="40" rx="10" fill="rgba(255,255,255,0.22)"></rect>
  <rect x="38" y="66" width="52" height="16" rx="6" fill="rgba(255,255,255,0.18)"></rect>

  <!-- Stolpe/diagram -->
  <rect x="42" y="84" width="8" height="12" rx="3" fill="rgba(255,255,255,0.55)"></rect>
  <rect x="54" y="80" width="8" height="16" rx="3" fill="rgba(255,255,255,0.65)"></rect>
  <rect x="66" y="86" width="8" height="10" rx="3" fill="rgba(255,255,255,0.45)"></rect>
  <rect x="78" y="78" width="8" height="18" rx="3" fill="rgba(255,255,255,0.75)"></rect>

  <!-- Liten “presenter”-fot -->
  <rect x="60" y="100" width="8" height="6" rx="3" fill="rgba(255,255,255,0.45)"></rect>
</svg>
