<svg xmlns="http://www.w3.org/2000/svg" width="128" height="128" viewBox="0 0 128 128" fill="none">
  <g transform="translate(6 -6)">
    <path d="M28 14h48l24 24v76c0 6.627-5.373 12-12 12H28c-6.627 0-12-5.373-12-12V26c0-6.627 5.373-12 12-12z" fill="#F3E8D2" stroke="#2B2419" stroke-width="6" stroke-linejoin="round" />
    <path d="M76 14v24h24" fill="#E8DBC2" stroke="#2B2419" stroke-width="6" stroke-linejoin="round" />

    <!-- Glidelås -->
    <rect x="60" y="46" width="8" height="64" rx="4" fill="#E0D4BE" stroke="#2B2419" stroke-width="2" />
    <rect x="56" y="44" width="16" height="12" rx="4" fill="#2B2419" fill-opacity="0.85" />
    <rect x="58" y="58" width="12" height="6" rx="3" fill="#2B2419" fill-opacity="0.8" />
    <rect x="58" y="70" width="12" height="6" rx="3" fill="#2B2419" fill-opacity="0.75" />
    <rect x="58" y="82" width="12" height="6" rx="3" fill="#2B2419" fill-opacity="0.7" />
    <rect x="58" y="94" width="12" height="6" rx="3" fill="#2B2419" fill-opacity="0.65" />
  </g>
</svg>
