<svg xmlns="http://www.w3.org/2000/svg" width="128" height="128" viewBox="0 0 128 128" fill="none">
  <!-- Bakre del av mappen -->
  <path d="M12 36C12 29.372 17.372 24 24 24H52L64 36H104C110.628 36 116 41.372 116 48V52H12V36Z" fill="#6B8FD6"></path>

  <!-- Fremre del av mappen -->
  <path d="M12 52H116V96C116 102.628 110.628 108 104 108H24C17.372 108 12 102.628 12 96V52Z" fill="#4F6FBF"></path>

  <!-- Dokument-symbol: ark -->
  <path d="M44 66c0-2.2 1.8-4 4-4h26l10 10v24c0 2.2-1.8 4-4 4H48c-2.2 0-4-1.8-4-4V66Z" fill="rgba(255,255,255,0.22)"></path>

  <!-- Brettet hjørne på arket -->
  <path d="M74 62v8c0 2.2 1.8 4 4 4h8L74 62Z" fill="rgba(255,255,255,0.38)"></path>

  <!-- Tekstlinjer -->
  <rect x="50" y="78" width="28" height="6" rx="3" fill="rgba(255,255,255,0.55)"></rect>
  <rect x="50" y="88" width="22" height="6" rx="3" fill="rgba(255,255,255,0.42)"></rect>

  <!-- Diskré kantlinje -->
  <path d="M12 52H116" stroke="rgba(255,255,255,0.25)" stroke-width="2"></path>
</svg>
