<svg xmlns="http://www.w3.org/2000/svg" width="128" height="128" viewBox="0 0 128 128" fill="none">
  <path d="M12 36C12 29.372 17.372 24 24 24H52L64 36H104C110.628 36 116 41.372 116 48V52H12V36Z" fill="#6B8FD6"></path>
  <path d="M12 52H116V96C116 102.628 110.628 108 104 108H24C17.372 108 12 102.628 12 96V52Z" fill="#4F6FBF"></path>
  <path d="M64 66c1.7 0 3 1.3 3 3v18l7-7c1.2-1.2 3.1-1.2 4.2 0 1.2 1.2 1.2 3.1 0 4.2L66.1 100.3c-1.2 1.2-3.1 1.2-4.2 0L49.8 88.2c-1.2-1.2-1.2-3.1 0-4.2 1.2-1.2 3.1-1.2 4.2 0l7 7V69c0-1.7 1.3-3 3-3Z" fill="rgba(255,255,255,0.85)"></path>
  <path d="M44 102h40" stroke="rgba(255,255,255,0.45)" stroke-width="6" stroke-linecap="round"></path>
  <path d="M12 52H116" stroke="rgba(255,255,255,0.25)" stroke-width="2"></path>
</svg>
