<svg xmlns="http://www.w3.org/2000/svg" width="128" height="128" viewBox="0 0 128 128" fill="none">
  <!-- Bakre del av mappen -->
  <path d="M12 36C12 29.372 17.372 24 24 24H52L64 36H104C110.628 36 116 41.372 116 48V52H12V36Z" fill="#6B8FD6"></path>

  <!-- Fremre del av mappen -->
  <path d="M12 52H116V96C116 102.628 110.628 108 104 108H24C17.372 108 12 102.628 12 96V52Z" fill="#4F6FBF"></path>

  <!-- Pictures-symbol: ramme -->
  <rect x="36" y="66" width="56" height="34" rx="6" fill="rgba(255,255,255,0.22)"></rect>

  <!-- Sol -->
  <circle cx="76" cy="77" r="6" fill="rgba(255,255,255,0.75)"></circle>

  <!-- Fjell -->
  <path d="M42 96 56 80 66 90 74 82 86 96H42Z" fill="rgba(255,255,255,0.7)"></path>
  <path d="M56 80 61 86 66 90 62 90 58 86 54 90 50 90 56 80Z" fill="rgba(255,255,255,0.45)"></path>

  <!-- Diskré kantlinje -->
  <path d="M12 52H116" stroke="rgba(255,255,255,0.25)" stroke-width="2"></path>
</svg>
