<svg xmlns="http://www.w3.org/2000/svg" width="128" height="128" viewBox="0 0 128 128" fill="none">
  <g transform="translate(6 -6)">
    <path d="M28 14h48l24 24v76c0 6.627-5.373 12-12 12H28c-6.627 0-12-5.373-12-12V26c0-6.627 5.373-12 12-12z" fill="#F3E8D2" stroke="#2B2419" stroke-width="6" stroke-linejoin="round" />
    <path d="M76 14v24h24" fill="#E8DBC2" stroke="#2B2419" stroke-width="6" stroke-linejoin="round" />

    <!-- Presentasjon -->
    <rect x="30" y="60" width="72" height="48" rx="8" fill="#F9E5D8" stroke="#2B2419" stroke-width="3" />
    <rect x="36" y="68" width="60" height="14" rx="6" fill="#F2D0BD" stroke="#2B2419" stroke-width="2" />
    <rect x="40" y="88" width="10" height="18" rx="3" fill="#2B2419" fill-opacity="0.7" />
    <rect x="56" y="84" width="10" height="22" rx="3" fill="#2B2419" fill-opacity="0.8" />
    <rect x="72" y="90" width="10" height="16" rx="3" fill="#2B2419" fill-opacity="0.6" />
    <rect x="88" y="82" width="10" height="24" rx="3" fill="#2B2419" fill-opacity="0.85" />
  </g>
</svg>
