<svg xmlns="http://www.w3.org/2000/svg" width="128" height="128" viewBox="0 0 128 128" fill="none">
  <!-- Rear part of folder -->
  <path d="M12 36V24H52L64 36H116V52H12V36Z" fill="#6B8FD6"></path>

  <!-- Front part of folder -->
  <path d="M12 52H116V108H12Z" fill="#4F6FBF"></path>

  <!-- Templates symbol: sheet 1 (back) -->
  <path d="M46 60c0-2.2 1.8-4 4-4h28l8 8v26c0 2.2-1.8 4-4 4H50c-2.2 0-4-1.8-4-4V60Z" fill="rgba(243,232,210,0.18)"></path>

  <!-- Templates symbol: sheet 2 (middle) -->
  <path d="M42 64c0-2.2 1.8-4 4-4h28l8 8v26c0 2.2-1.8 4-4 4H46c-2.2 0-4-1.8-4-4V64Z" fill="rgba(243,232,210,0.24)"></path>

  <!-- Templates symbol: sheet 3 (front) -->
  <path d="M38 68c0-2.2 1.8-4 4-4h28l8 8v26c0 2.2-1.8 4-4 4H42c-2.2 0-4-1.8-4-4V68Z" fill="rgba(243,232,210,0.75)"></path>

  <!-- Folded corner on front sheet -->
  <path d="M66 64v8c0 2.2 1.8 4 4 4h8L66 64Z" fill="rgba(243,232,210,0.45)"></path>

  <!-- Subtle outline -->
  <path d="M12 52H116" stroke="rgba(243,232,210,0.25)" stroke-width="2"></path>
</svg>
