<svg xmlns="http://www.w3.org/2000/svg" width="128" height="128" viewBox="0 0 128 128" fill="none">
  <!-- Bakre del av mappen -->
  <path d="M12 36V24H52L64 36H116V52H12V36Z" fill="#6B8FD6"></path>

  <!-- Fremre del av mappen -->
  <path d="M12 52H116V108H12Z" fill="#4F6FBF"></path>

  <!-- Video-symbol: skjerm -->
  <rect x="34" y="66" width="60" height="34" rx="0" fill="rgba(243,232,210,0.22)"></rect>

  <!-- Play-triangel -->
  <path d="M60 75.5c0-1.2 1.3-2 2.4-1.3l16 9.2c1.1.6 1.1 2.1 0 2.7l-16 9.2c-1.1.6-2.4-.1-2.4-1.3V75.5Z" fill="rgba(243,232,210,0.78)"></path>

  <!-- Små “filmstrips”-hakk (diskré) -->
  <rect x="36" y="69" width="4" height="4" rx="0" fill="rgba(243,232,210,0.35)"></rect>
  <rect x="36" y="93" width="4" height="4" rx="0" fill="rgba(243,232,210,0.35)"></rect>
  <rect x="88" y="69" width="4" height="4" rx="0" fill="rgba(243,232,210,0.35)"></rect>
  <rect x="88" y="93" width="4" height="4" rx="0" fill="rgba(243,232,210,0.35)"></rect>

  <!-- Diskré kantlinje -->
  <path d="M12 52H116" stroke="rgba(243,232,210,0.25)" stroke-width="2"></path>
</svg>
