<svg xmlns="http://www.w3.org/2000/svg" width="128" height="128" viewBox="0 0 128 128" fill="none">
  <path d="M12 36C12 29.372 17.372 24 24 24H52L64 36H104C110.628 36 116 41.372 116 48V52H12V36Z" fill="#6B8FD6"></path>
  <path d="M12 52H116V96C116 102.628 110.628 108 104 108H24C17.372 108 12 102.628 12 96V52Z" fill="#4F6FBF"></path>

  <path d="M48 98h34c6.6 0 12-4.8 12-10.8 0-5.4-4.2-9.8-9.8-10.6C82.4 70.4 76.8 66 70 66c-7.6 0-14 5.4-15.4 12.6h-.6C46.2 78.6 40 83.6 40 89.8 40 94.6 43.6 98 48 98Z" fill="rgba(255,255,255,0.78)"></path>
  <path d="M12 52H116" stroke="rgba(255,255,255,0.25)" stroke-width="2"></path>
</svg>
