<svg xmlns="http://www.w3.org/2000/svg" width="128" height="128" viewBox="0 0 128 128" fill="none">
  <!-- Filark -->
  <path d="M28 16C21.372 16 16 21.372 16 28V100C16 106.628 21.372 112 28 112H100C106.628 112 112 106.628 112 100V44L84 16H28Z" fill="#5F7FD1"></path>

  <!-- Brettet hjørne -->
  <path d="M84 16V36C84 40.418 87.582 44 92 44H112L84 16Z" fill="#8FA6E8"></path>

  <!-- Person-ikon -->
  <circle cx="64" cy="72" r="9" fill="rgba(255,255,255,0.85)"></circle>
  <path d="M46 96c0-7.2 8-13 18-13s18 5.8 18 13v2H46v-2Z" fill="rgba(255,255,255,0.7)"></path>

  <!-- Kontaktlinje -->
  <rect x="44" y="102" width="40" height="6" rx="3" fill="rgba(255,255,255,0.4)"></rect>
</svg>
