<svg xmlns="http://www.w3.org/2000/svg" width="128" height="128" viewBox="0 0 128 128" fill="none">
  <!-- Filark -->
  <path d="M28 16C21.372 16 16 21.372 16 28V100C16 106.628 21.372 112 28 112H100C106.628 112 112 106.628 112 100V44L84 16H28Z" fill="#5F7FD1"></path>

  <!-- Brettet hjørne -->
  <path d="M84 16V36C84 40.418 87.582 44 92 44H112L84 16Z" fill="#8FA6E8"></path>

  <!-- Stor A -->
  <path d="M52 92 64 60 76 92h-6l-2.6-7.4H60.6L58 92h-6Z" fill="rgba(255,255,255,0.85)"></path>

  <!-- Liten a -->
  <path d="M82 88c0-3.6 3.2-6.4 7.4-6.4 2 0 3.8.4 5.2 1.1v-1.1c0-2.4-1.8-3.8-4.6-3.8-1.8 0-3.6.5-5.2 1.3l-1.2-3.4c2-1 4.4-1.7 7.2-1.7 5.6 0 8.6 2.9 8.6 7.8V92h-4.4l-.4-1.8c-1.4 1.4-3.6 2.3-6.2 2.3-3.8 0-6.4-2.2-6.4-5.5Zm12.6-1.1v-1.3c-1.1-.5-2.6-.8-4.2-.8-2.6 0-4.2 1.1-4.2 2.9s1.4 2.8 3.6 2.8c2.8 0 4.8-1.6 4.8-3.6Z" fill="rgba(255,255,255,0.65)"></path>
</svg>
