<svg xmlns="http://www.w3.org/2000/svg" width="128" height="128" viewBox="0 0 128 128" fill="none">
  <!-- Filark -->
  <path d="M28 16C21.372 16 16 21.372 16 28V100C16 106.628 21.372 112 28 112H100C106.628 112 112 106.628 112 100V44L84 16H28Z" fill="#5F7FD1"></path>

  <!-- Brettet hjørne -->
  <path d="M84 16V36C84 40.418 87.582 44 92 44H112L84 16Z" fill="#8FA6E8"></path>

  <!-- Bilde-symbol: ramme -->
  <rect x="34" y="60" width="60" height="44" rx="10" fill="rgba(255,255,255,0.22)"></rect>

  <!-- Sol -->
  <circle cx="78" cy="72" r="6" fill="rgba(255,255,255,0.75)"></circle>

  <!-- Fjell -->
  <path d="M40 100 56 80 66 90 74 82 88 100H40Z" fill="rgba(255,255,255,0.75)"></path>
  <path d="M56 80 61 86 66 90 62 90 58 86 54 90 50 90 56 80Z" fill="rgba(255,255,255,0.45)"></path>
</svg>
