<svg xmlns="http://www.w3.org/2000/svg" width="128" height="128" viewBox="0 0 128 128" fill="none">
  <!-- Rear part of folder -->
  <path d="M12 36V24H52L64 36H116V52H12V36Z" fill="#6B8FD6"></path>

  <!-- Front part of folder -->
  <path d="M12 52H116V108H12Z" fill="#4F6FBF"></path>

  <!-- Public symbol: two people (group) -->
  <!-- Rear person -->
  <circle cx="76" cy="76" r="8" fill="rgba(243,232,210,0.45)"></circle>
  <path d="M62 98c0-7.2 6.6-13 14.8-13H80c8.2 0 14.8 5.8 14.8 13v2H62v-2Z" fill="rgba(243,232,210,0.38)"></path>

  <!-- Front person -->
  <circle cx="56" cy="78" r="9" fill="rgba(243,232,210,0.78)"></circle>
  <path d="M40 100c0-8 7.2-14.5 16-14.5h0c8.8 0 16 6.5 16 14.5v2H40v-2Z" fill="rgba(243,232,210,0.7)"></path>

  <!-- Subtle outline -->
  <path d="M12 52H116" stroke="rgba(243,232,210,0.25)" stroke-width="2"></path>
</svg>
