<svg xmlns="http://www.w3.org/2000/svg" width="128" height="128" viewBox="0 0 128 128" fill="none">
  <!-- Fil/dokument -->
  <path d="M28 16C21.372 16 16 21.372 16 28V100C16 106.628 21.372 112 28 112H100C106.628 112 112 106.628 112 100V44L84 16H28Z" fill="#5F7FD1"></path>

  <!-- Brettet hjørne -->
  <path d="M84 16V36C84 40.418 87.582 44 92 44H112L84 16Z" fill="#8FA6E8"></path>

  <!-- Snarvei-pil (samme fargespråk, diskret) -->
  <path d="M34 86c0-7.7 6.3-14 14-14h10v6h-10c-4.4 0-8 3.6-8 8s3.6 8 8 8h10v6h-10c-7.7 0-14-6.3-14-14Z" fill="rgba(255,255,255,0.75)"></path>
  <path d="M58 66 74 86 58 106v-12h-6v-16h6V66Z" fill="rgba(255,255,255,0.75)"></path>

  <!-- Samme subtile kantlinje -->
  <path d="M16 52H112" stroke="rgba(255,255,255,0.25)" stroke-width="2"></path>
</svg>
