<svg xmlns="http://www.w3.org/2000/svg" width="128" height="128" viewBox="0 0 128 128" fill="none">
  <!-- Filark -->
  <path d="M28 16C21.372 16 16 21.372 16 28V100C16 106.628 21.372 112 28 112H100C106.628 112 112 106.628 112 100V44L84 16H28Z" fill="#5F7FD1"></path>
  <!-- Brettet hjørne -->
  <path d="M84 16V36C84 40.418 87.582 44 92 44H112L84 16Z" fill="#8FA6E8"></path>

  <!-- Rutenett-badge -->
  <rect x="34" y="62" width="60" height="44" rx="10" fill="rgba(255,255,255,0.22)"></rect>
  <path d="M34 76h60M34 90h60" stroke="rgba(255,255,255,0.55)" stroke-width="3" stroke-linecap="round"></path>
  <path d="M54 62v44M74 62v44" stroke="rgba(255,255,255,0.55)" stroke-width="3" stroke-linecap="round"></path>

  <!-- Liten “cell”-highlight -->
  <rect x="55.5" y="77.5" width="17" height="11" rx="3" fill="rgba(255,255,255,0.35)"></rect>
</svg>
